<mxfile host="app.diagrams.net" modified="2023-05-30T00:28:05.673Z" agent="Mozilla/5.0 (Windows NT 10.0; Win64; x64) AppleWebKit/537.36 (KHTML, like Gecko) Chrome/113.0.0.0 Safari/537.36" etag="IF0j9QVH8mseSeVlfD3c" version="21.2.9" type="github">
  <diagram name="Page-1" id="Rp6j3t5JkSDYkT9uD_ft">
    <mxGraphModel dx="794" dy="1677" grid="1" gridSize="10" guides="1" tooltips="1" connect="1" arrows="1" fold="1" page="1" pageScale="1" pageWidth="827" pageHeight="1169" math="0" shadow="0">
      <root>
        <mxCell id="0" />
        <mxCell id="1" parent="0" />
        <mxCell id="XKaI5s0PBr2QPzsGbU5I-1" value="" style="rounded=0;whiteSpace=wrap;html=1;" vertex="1" parent="1">
          <mxGeometry x="160" y="40" width="520" height="640" as="geometry" />
        </mxCell>
        <mxCell id="XKaI5s0PBr2QPzsGbU5I-2" value="占一屏广告&lt;br&gt;交互于apple官网一样，滚动时向上" style="rounded=0;whiteSpace=wrap;html=1;" vertex="1" parent="1">
          <mxGeometry x="175" y="60" width="490" height="160" as="geometry" />
        </mxCell>
        <mxCell id="XKaI5s0PBr2QPzsGbU5I-3" value="主打科技论文在线阅读-论文助手需要钱" style="text;html=1;align=center;verticalAlign=middle;resizable=0;points=[];autosize=1;strokeColor=none;fillColor=none;" vertex="1" parent="1">
          <mxGeometry x="160" y="-30" width="230" height="30" as="geometry" />
        </mxCell>
        <mxCell id="XKaI5s0PBr2QPzsGbU5I-4" value="计算机科学" style="rounded=0;whiteSpace=wrap;html=1;" vertex="1" parent="1">
          <mxGeometry x="180" y="50" width="120" height="30" as="geometry" />
        </mxCell>
        <mxCell id="XKaI5s0PBr2QPzsGbU5I-5" value="生命科学" style="rounded=0;whiteSpace=wrap;html=1;fillColor=#f5f5f5;fontColor=#333333;strokeColor=#666666;" vertex="1" parent="1">
          <mxGeometry x="320" y="50" width="120" height="30" as="geometry" />
        </mxCell>
        <mxCell id="XKaI5s0PBr2QPzsGbU5I-6" value="人文社科" style="rounded=0;whiteSpace=wrap;html=1;fillColor=#f5f5f5;fontColor=#333333;strokeColor=#666666;" vertex="1" parent="1">
          <mxGeometry x="460" y="50" width="120" height="30" as="geometry" />
        </mxCell>
        <mxCell id="XKaI5s0PBr2QPzsGbU5I-7" value="个人" style="rounded=0;whiteSpace=wrap;html=1;fillColor=#f5f5f5;fontColor=#333333;strokeColor=#666666;" vertex="1" parent="1">
          <mxGeometry x="600" y="50" width="50" height="30" as="geometry" />
        </mxCell>
        <mxCell id="XKaI5s0PBr2QPzsGbU5I-8" value="&lt;h1&gt;论文title&lt;/h1&gt;&lt;p&gt;Lorem ipsum dolor sit amet, consectetur adipisicing elit, sed do eiusmod tempor incididunt ut labore et dolore magna aliqua.&lt;/p&gt;" style="text;html=1;strokeColor=none;fillColor=none;spacing=5;spacingTop=-20;whiteSpace=wrap;overflow=hidden;rounded=0;" vertex="1" parent="1">
          <mxGeometry x="180" y="240" width="200" height="120" as="geometry" />
        </mxCell>
        <mxCell id="XKaI5s0PBr2QPzsGbU5I-9" value="&lt;h1&gt;论文title&lt;/h1&gt;&lt;p&gt;Lorem ipsum dolor sit amet, consectetur adipisicing elit, sed do eiusmod tempor incididunt ut labore et dolore magna aliqua.&lt;/p&gt;" style="text;html=1;strokeColor=none;fillColor=none;spacing=5;spacingTop=-20;whiteSpace=wrap;overflow=hidden;rounded=0;" vertex="1" parent="1">
          <mxGeometry x="450" y="240" width="200" height="120" as="geometry" />
        </mxCell>
        <mxCell id="XKaI5s0PBr2QPzsGbU5I-10" value="&lt;h1&gt;论文title&lt;/h1&gt;&lt;p&gt;Lorem ipsum dolor sit amet, consectetur adipisicing elit, sed do eiusmod tempor incididunt ut labore et dolore magna aliqua.&lt;/p&gt;" style="text;html=1;strokeColor=none;fillColor=none;spacing=5;spacingTop=-20;whiteSpace=wrap;overflow=hidden;rounded=0;" vertex="1" parent="1">
          <mxGeometry x="175" y="390" width="200" height="120" as="geometry" />
        </mxCell>
        <mxCell id="XKaI5s0PBr2QPzsGbU5I-11" value="&lt;h1&gt;论文title&lt;/h1&gt;&lt;p&gt;Lorem ipsum dolor sit amet, consectetur adipisicing elit, sed do eiusmod tempor incididunt ut labore et dolore magna aliqua.&lt;/p&gt;" style="text;html=1;strokeColor=none;fillColor=none;spacing=5;spacingTop=-20;whiteSpace=wrap;overflow=hidden;rounded=0;" vertex="1" parent="1">
          <mxGeometry x="450" y="390" width="200" height="120" as="geometry" />
        </mxCell>
        <mxCell id="XKaI5s0PBr2QPzsGbU5I-12" value="&lt;font style=&quot;font-size: 20px;&quot;&gt;体验论文助手&lt;/font&gt;&lt;br&gt;点击后需要登录，可以免注册那些繁琐的流程&lt;br&gt;手机号+短信&lt;br&gt;支持google邮箱认证&lt;br&gt;支持微软邮箱认知" style="rounded=0;whiteSpace=wrap;html=1;" vertex="1" parent="1">
          <mxGeometry x="180" y="520" width="490" height="110" as="geometry" />
        </mxCell>
      </root>
    </mxGraphModel>
  </diagram>
</mxfile>
